<?xml version="1.0" standalone="no"?>
<!DOCTYPE svg PUBLIC "-//W3C//DTD SVG 20010904//EN"
 "http://www.w3.org/TR/2001/REC-SVG-20010904/DTD/svg10.dtd">
<svg version="1.0" xmlns="http://www.w3.org/2000/svg"
 width="500.000000pt" height="500.000000pt" viewBox="0 0 500.000000 500.000000"
 preserveAspectRatio="xMidYMid meet">

<g transform="translate(0.000000,500.000000) scale(0.100000,-0.100000)"
fill="#000000" stroke="none">
<path d="M2605 4245 c-32 -31 -32 -72 0 -115 l25 -33 -1 -243 0 -242 -87 -27
c-94 -29 -151 -54 -223 -96 l-46 -27 -177 177 c-157 157 -176 180 -176 209 0
71 -90 110 -138 59 -32 -34 -30 -89 4 -116 15 -12 41 -21 58 -21 27 0 56 -26
228 -197 174 -174 200 -196 216 -186 90 64 243 130 352 152 l55 11 -2 271 -1
270 24 36 c13 20 24 49 24 65 0 39 -40 78 -80 78 -19 0 -40 -9 -55 -25z m89
-21 c9 -8 16 -23 16 -31 0 -21 -29 -53 -48 -53 -20 0 -52 29 -52 47 0 47 52
70 84 37z m-819 -348 c31 -46 -25 -97 -66 -60 -23 21 -24 47 -3 68 23 23 51
20 69 -8z"/>
<path d="M1580 3907 c-35 -18 -52 -73 -33 -110 15 -29 56 -51 84 -44 11 3 123
-102 354 -333 l337 -338 -40 -53 c-22 -30 -52 -78 -67 -107 -29 -59 -65 -188
-65 -234 l0 -28 -480 0 c-467 0 -481 1 -502 20 -26 24 -75 26 -106 4 -34 -24
-31 -95 5 -124 32 -25 75 -21 108 10 21 19 36 20 498 20 l477 0 0 -28 c0 -89
65 -254 135 -347 l37 -48 -338 -338 c-285 -285 -343 -339 -367 -339 -42 0 -64
-16 -77 -56 -11 -32 -10 -39 7 -63 27 -36 64 -47 101 -32 31 13 58 59 49 83
-3 8 138 157 336 355 l340 342 41 -33 c23 -18 61 -45 86 -59 43 -24 157 -67
180 -67 5 0 10 18 10 39 0 39 -1 39 -56 57 -76 24 -163 78 -230 144 -242 237
-235 631 15 861 66 61 176 123 237 135 33 6 34 8 34 50 0 43 -1 44 -27 38 -62
-14 -177 -69 -232 -109 l-58 -43 -337 337 c-282 283 -336 341 -336 364 0 33
-48 87 -77 87 -10 0 -29 -6 -43 -13z m68 -39 c30 -30 3 -83 -39 -76 -32 5 -45
31 -31 62 13 28 49 35 70 14z m-504 -1204 c19 -18 21 -55 4 -72 -19 -19 -55
-14 -72 9 -16 23 -12 47 12 67 21 16 37 15 56 -4z m504 -1216 c22 -22 14 -67
-13 -80 -21 -9 -28 -8 -45 7 -36 32 -20 85 25 85 12 0 26 -5 33 -12z"/>
<path d="M1545 3666 c-51 -51 -15 -136 57 -136 30 0 52 -19 211 -178 168 -168
176 -178 163 -198 -34 -48 -70 -126 -101 -219 l-34 -100 -251 -5 c-251 -5
-251 -5 -272 18 -29 30 -87 30 -116 -1 -71 -76 41 -185 114 -112 l25 25 279 0
280 0 6 28 c26 122 77 248 138 342 l35 55 -196 197 c-148 148 -197 203 -199
224 -8 75 -89 110 -139 60z m87 -23 c24 -21 23 -45 -2 -68 -30 -27 -70 -7 -70
34 0 45 39 64 72 34z m-337 -827 c28 -43 -18 -91 -63 -67 -28 15 -35 40 -17
67 21 32 60 31 80 0z"/>
<path d="M2663 3107 l-293 -142 0 -147 0 -148 37 -19 38 -19 -38 -18 -37 -18
0 -146 0 -147 246 -122 c136 -67 269 -131 296 -143 l49 -21 140 67 141 66 -32
-37 c-57 -64 -80 -127 -80 -218 0 -98 27 -163 95 -229 64 -63 137 -89 235 -84
89 4 150 30 209 89 59 59 85 120 89 209 5 97 -21 171 -82 234 -66 68 -115 89
-220 94 l-88 5 96 45 96 45 0 147 0 147 -42 17 -43 18 43 19 42 20 0 145 0
144 -296 145 c-162 80 -298 145 -302 144 -4 0 -139 -64 -299 -142z m542 -267
l49 -22 -37 -19 -37 -19 -100 50 c-55 27 -107 50 -115 50 -8 0 -61 -23 -117
-51 l-101 -51 -40 18 -40 18 147 73 147 73 97 -49 c53 -27 119 -59 147 -71z
m-345 -410 l100 -50 100 50 c55 27 106 50 114 50 20 0 66 -21 66 -30 0 -4 -63
-37 -141 -74 l-140 -67 -140 67 c-76 37 -139 70 -139 74 0 9 41 28 63 29 9 1
62 -22 117 -49z m669 -295 c95 -33 159 -118 168 -225 16 -173 -165 -312 -335
-256 -56 19 -120 75 -148 128 -10 18 -19 65 -22 103 -3 62 -1 76 25 124 61
117 190 169 312 126z"/>
<path d="M3410 1957 l0 -92 79 -48 c88 -52 96 -54 105 -30 7 18 6 20 -76 65
l-58 33 0 82 c0 82 0 83 -25 83 -25 0 -25 0 -25 -93z"/>
<path d="M1243 2532 c-48 -7 -80 -85 -50 -123 34 -44 87 -50 123 -14 l25 25
251 -2 251 -3 19 -70 c10 -38 42 -117 70 -174 l51 -103 -179 -179 c-155 -155
-183 -179 -210 -179 -63 0 -97 -80 -55 -131 14 -18 29 -24 61 -24 50 0 80 30
80 79 0 27 25 56 199 230 l199 199 -23 31 c-58 77 -116 220 -149 369 l-6 27
-279 0 c-229 0 -281 3 -290 14 -16 19 -60 33 -88 28z m59 -56 c13 -31 5 -54
-24 -65 -47 -18 -85 33 -52 70 24 27 62 25 76 -5z m333 -816 c40 -44 -27 -97
-69 -54 -9 8 -16 22 -16 29 0 19 28 45 49 45 10 0 26 -9 36 -20z"/>
<path d="M2070 1675 c-141 -141 -201 -195 -218 -195 -30 0 -78 -25 -86 -45 -3
-9 -6 -29 -6 -43 2 -103 159 -99 160 3 0 26 27 57 178 208 l179 179 48 -31
c49 -31 161 -78 245 -102 25 -7 48 -18 52 -24 4 -5 7 -118 7 -249 -1 -239 -1
-240 -25 -269 -32 -38 -31 -81 2 -114 21 -21 32 -24 62 -19 70 11 94 79 47
134 l-25 30 0 279 0 279 -62 13 c-90 18 -202 64 -287 116 -40 25 -74 45 -75
45 0 0 -89 -88 -196 -195z m-189 -256 c8 -16 8 -28 0 -45 -15 -34 -67 -34 -82
0 -16 35 3 66 41 66 20 0 33 -7 41 -21z m813 -335 c19 -19 20 -35 4 -56 -22
-26 -47 -29 -68 -8 -11 11 -20 26 -20 34 0 20 28 46 50 46 10 0 26 -7 34 -16z"/>
</g>
</svg>
